<?xml version="1.0" encoding="UTF-8"?>
<svg version="1.1" xmlns="http://www.w3.org/2000/svg" width="40" height="40">
<path d="M0 0 C13.2 0 26.4 0 40 0 C40 13.2 40 26.4 40 40 C26.8 40 13.6 40 0 40 C0 26.8 0 13.6 0 0 Z " fill="#FBFBFC" transform="translate(0,0)"/>
<path d="M0 0 C2.97 0 5.94 0 9 0 C9 3.3 9 6.6 9 10 C8.34 10 7.68 10 7 10 C7 9.01 7 8.02 7 7 C6.01 7.495 6.01 7.495 5 8 C5.24556641 9.02673828 5.24556641 9.02673828 5.49609375 10.07421875 C6.06447034 13.3743278 6.09630767 16.46554069 6.0625 19.8125 C6.05347656 20.97394531 6.04445313 22.13539062 6.03515625 23.33203125 C6.02355469 24.21246094 6.01195313 25.09289062 6 26 C3.45716766 26.10871967 0.91904912 26.18762401 -1.625 26.25 C-2.33785156 26.28351562 -3.05070312 26.31703125 -3.78515625 26.3515625 C-8.99725084 26.44719726 -11.87033714 25.44758641 -16 22 C-18.6816265 17.97756025 -18.68957829 14.72734998 -18 10 C-15.94161475 6.66399633 -14.2606736 5.1737824 -11 3 C-6.17425558 2.63579287 -2.49683714 3.24513673 2 5 C2.33 4.34 2.66 3.68 3 3 C2.01 3 1.02 3 0 3 C0 2.01 0 1.02 0 0 Z " fill="#0D3254" transform="translate(25,8)"/>
<path d="M0 0 C2.97 0 5.94 0 9 0 C9 3.3 9 6.6 9 10 C8.34 10 7.68 10 7 10 C7 9.01 7 8.02 7 7 C6.46890625 7.30035156 5.9378125 7.60070312 5.390625 7.91015625 C4.33101562 8.48056641 4.33101562 8.48056641 3.25 9.0625 C2.55390625 9.44535156 1.8578125 9.82820313 1.140625 10.22265625 C-1.42473328 11.15423708 -2.44234491 10.8005259 -5 10 C-8.94011162 9.54207092 -8.94011162 9.54207092 -10.8515625 11.75 C-11.72941406 12.86375 -11.72941406 12.86375 -12.625 14 C-13.71075021 15.36548499 -14.82851078 16.70732224 -16 18 C-16.66 18 -17.32 18 -18 18 C-18.48970976 10.776781 -18.48970976 10.776781 -16.1875 7.125 C-13.30445553 4.32432823 -11.75540158 3.05701144 -7.6875 2.75 C-4.10001594 2.99321926 -1.3340896 3.69889186 2 5 C2.33 4.34 2.66 3.68 3 3 C2.01 3 1.02 3 0 3 C0 2.01 0 1.02 0 0 Z " fill="#0F3258" transform="translate(25,8)"/>
<path d="M0 0 C0.495 0.350625 0.99 0.70125 1.5 1.0625 C5.22697603 2.46011601 8.09802848 1.65032859 12 1 C11.46104623 4.7726764 10.00464642 6.68212991 7 9 C5 8.75 5 8.75 3 8 C-1.36795404 8 -1.74658993 8.22762148 -4.75 11 C-5.36359375 11.556875 -5.9771875 12.11375 -6.609375 12.6875 C-7.06828125 13.120625 -7.5271875 13.55375 -8 14 C-8.66 12.68 -9.32 11.36 -10 10 C-9.34 10 -8.68 10 -8 10 C-7.79375 9.46375 -7.5875 8.9275 -7.375 8.375 C-5.42003056 4.9982346 -2.81776305 2.69525161 0 0 Z " fill="#6EBB2C" transform="translate(17,16)"/>
</svg>
